<?xml version="1.0" encoding="iso-8859-1"?>
<!DOCTYPE svg PUBLIC "-//W3C//DTD SVG 1.1//EN" "http://www.w3.org/Graphics/SVG/1.1/DTD/svg11.dtd">
<svg 
 version="1.1" xmlns="http://www.w3.org/2000/svg" xmlns:xlink="http://www.w3.org/1999/xlink" x="0px" y="0px" width="512px"
	 height="512px" viewBox="0 0 512 512" style="enable-background:new 0 0 512 512;" xml:space="preserve"
><g id="7935ec95c421cee6d86eb22ecd12fe95"><g></g><path style="display: inline; fill-rule: evenodd; clip-rule: evenodd;" d="M0.5,409.386v30.846c0,0,49.333-23.137,92.683-52.418
		c40.48-27.374,75.167-61.026,75.167-61.026s68.583,35.982,188.775,19.484c106.985-14.689,154.375-67.8,154.375-67.8V121.173
		c0,0-18.207-16.786-39.923-29.461c-20.592-12.018-44.763-19.943-44.763-19.943H178.291c0,0-89.174,30.801-112.338,86.809
		c-28.597,69.141,10.525,92.817,10.525,92.817s7.511,9.328,88.239-17.344c56.322-18.604,118.473-43.656,118.473-43.656
		s-81.528,42.738-127.217,74.16c-28.795,19.8-29.785,32.771-29.785,32.771s3.148,6.818,7.997,11.182
		c5.56,5.011,12.909,7.664,12.909,7.664s-31.476,28.247-67.423,51.096C42.339,391.007,0.5,409.386,0.5,409.386z"></path></g></svg>